# xmcd CD database file
#
# Track frame offsets:
#	150
#	13312
#	24932
#	36812
#	48227
#	59237
#	70155
#	84232
#	95552
#	107235
#	119065
#	131242
#	144252
#	157442
#	169810
#	182087
#	194337
#	206712
#	219280
#	230952
#	244217
#	257340
#	269967
#	283062
#	295822
#	308807
#
# Disc length: 4294 seconds
#
# Revision: 1
# Processed by: cddbd v1.5.2PL0 Copyright (c) Steve Scherf et al.
# Submitted via: CDex 1.70beta2
#
DISCID=9f10c41a
DTITLE=Diana Ross and The Supremes - Anthology: The Best Of Diana Ross and The Supremes Disc 1
DYEAR=1995
DGENRE=Blues
TTITLE0=I Want A Guy
TTITLE1=Buttered Popcorn
TTITLE2=Your Heart Belongs To Me
TTITLE3=Let Me Go The Right Way
TTITLE4=A breath Taking Guy
TTITLE5=Long Gone Lover
TTITLE6=When The Lovelight Starts Shinning Through His Eyes
TTITLE7=Send Me No Flowers
TTITLE8=Where Did Our Love Go
TTITLE9=Baby Love
TTITLE10=Come See About Me
TTITLE11=Stop! In The Name Of Love
TTITLE12=Back In My Arms Again
TTITLE13=Nothing But Heartaches
TTITLE14=Mother Dear
TTITLE15=Too Hurt To Cry, Too Much In Love To Say Goodbye
TTITLE16=I Hear A Symphony
TTITLE17=He's  All I Got
TTITLE18=My World Is Empty Without You
TTITLE19=Love Is Like An Itching In My Heart
TTITLE20=You Can't Hurry Love
TTITLE21=You Keep Me Hanging On
TTITLE22=Remove This Doubt
TTITLE23=Love Is Here And Now You're Gone
TTITLE24=The Happening
TTITLE25=Things Are Changing
EXTD=YEAR: 1995
EXTT0=
EXTT1=
EXTT2=
EXTT3=
EXTT4=
EXTT5=
EXTT6=
EXTT7=
EXTT8=
EXTT9=
EXTT10=
EXTT11=
EXTT12=
EXTT13=
EXTT14=
EXTT15=
EXTT16=
EXTT17=
EXTT18=
EXTT19=
EXTT20=
EXTT21=
EXTT22=
EXTT23=
EXTT24=
EXTT25=
PLAYORDER=
